<svg width="48" height="48" viewBox="0 0 48 48" fill="none" xmlns="http://www.w3.org/2000/svg">
<path d="M45.3563 37.0088L1.64626 37.0013C1.24126 37.095 0.956258 37.2075 0.817508 37.335C-1.04999 39.045 3.61126 42.9488 4.54501 43.8713C5.58751 44.895 6.70501 45.8175 7.87501 46.635C8.26876 46.9088 9.00751 47.4188 10.605 47.4188H42.1088C43.6913 47.4188 44.9138 47.055 45.4163 45.4088C45.8438 44.01 46.8863 41.8313 47.4375 39.6488C48.0225 37.365 47.1525 37.0088 45.3563 37.0088V37.0088Z" fill="white"/>
<path d="M2.66998 38.985L45.3562 38.9925H45.555C45.5437 39.045 45.5325 39.1013 45.5175 39.165C45.2062 40.3763 44.715 41.6363 44.2837 42.7463C43.9875 43.5038 43.71 44.2163 43.5225 44.835C43.4025 45.225 43.3387 45.4425 42.1125 45.4425H10.6087C9.62998 45.4425 9.26998 45.195 9.01123 45.015C7.91804 44.2537 6.89068 43.4019 5.93998 42.4688C5.82373 42.3563 5.65873 42.1988 5.45623 42.0113C3.82498 40.4888 3.04123 39.555 2.66998 38.985V38.985ZM1.64998 37.0013C1.24498 37.095 0.959981 37.2075 0.821231 37.335C-1.04627 39.045 3.61498 42.9488 4.54873 43.8713C5.59123 44.895 6.70873 45.8175 7.87873 46.635C8.27248 46.9088 9.01123 47.4188 10.6087 47.4188H42.1125C43.695 47.4188 44.9175 47.055 45.42 45.4088C45.8475 44.01 46.89 41.8313 47.4412 39.6488C48.0225 37.3613 47.1562 37.005 45.36 37.005C45.2962 37.0088 1.64998 37.0013 1.64998 37.0013V37.0013Z" fill="#FCC21B"/>
<path d="M22.6875 24.9075C21.8925 29.9212 20.5088 33.2475 20.5088 33.2475C29.19 33.2475 44.9363 32.985 44.5313 32.985C44.4188 32.985 44.7038 29.4562 43.9988 24.9075C43.3688 20.865 41.9625 16.02 38.805 12.1162C30.8663 2.28374 18.5625 0.581238 18.5625 0.581238C23.7525 9.15749 23.7113 18.4387 22.6875 24.9075ZM17.2425 24.9075L17.5575 3.05624C17.2613 3.05624 11.1975 12.7687 7.2225 24.9075C6.22875 27.945 5.3625 31.1325 4.755 34.3575L17.1225 33.1087L17.2425 24.9075Z" fill="#40C0E7"/>
<path d="M32.8912 13.65C32.8687 13.7813 32.8462 13.9088 32.8237 14.025C32.6362 15.0863 32.52 16.14 32.145 17.1563C31.7512 18.2175 31.23 19.2225 30.6675 20.205C30.345 20.7638 29.7375 21.4388 29.8725 22.1363C30.2737 24.12 33.5887 21.1125 34.4475 20.8913C35.8687 20.5313 35.1525 23.1525 34.9237 23.745C33.9525 26.2725 31.2487 27.72 29.0137 28.9613C28.6687 29.1525 28.305 29.31 27.9825 29.535C27.6225 29.7863 27.375 30.33 27.6487 30.7238C28.02 31.2563 28.8 31.1625 29.37 31.1438C35.7712 30.93 37.845 29.3475 39.2925 27.6525C41.6512 24.8925 40.5187 20.8088 39.1387 17.8838C38.43 16.3763 37.6612 14.8163 36.5662 13.545C36.0075 12.8963 35.2987 12.24 34.545 11.82C34.2637 11.6625 33.9412 11.6325 33.6787 11.8463C33.195 12.2475 33.0112 13.005 32.8912 13.65V13.65Z" fill="white"/>
<path d="M5.58002 43.2412H45.0863L43.68 46.05H9.29627L5.58002 43.2412Z" fill="#FCC21B"/>
</svg>
